<svg preserveAspectRatio="none" width="100%" height="100%" overflow="visible" style="display: block;" viewBox="0 0 20 9" fill="none" xmlns="http://www.w3.org/2000/svg">
<path id="ApplePay" fill-rule="evenodd" clip-rule="evenodd" d="M2.61125 1.53026C2.97805 1.56165 3.34485 1.34192 3.5741 1.06333C3.79953 0.776901 3.94854 0.392374 3.91033 0C3.58556 0.015695 3.18437 0.219729 2.95512 0.506163C2.74498 0.753358 2.5654 1.15358 2.61125 1.53026ZM6.97468 6.58416V0.467056H9.20986C10.3638 0.467056 11.17 1.28319 11.17 2.47601C11.17 3.66882 10.3485 4.49281 9.1793 4.49281H7.89932V6.58416H6.97468ZM3.90647 1.6047C3.58333 1.5856 3.28847 1.7045 3.05031 1.80054C2.89705 1.86234 2.76726 1.91468 2.66852 1.91468C2.55771 1.91468 2.42257 1.85954 2.27083 1.79764C2.07201 1.71653 1.8447 1.62379 1.60633 1.62824C1.05995 1.63609 0.551779 1.95391 0.272859 2.46007C-0.300266 3.4724 0.123846 4.97127 0.677867 5.79525C0.949146 6.20332 1.27392 6.65062 1.70185 6.63493C1.89011 6.62763 2.02554 6.56862 2.1657 6.50755C2.32705 6.43723 2.49467 6.36419 2.7564 6.36419C3.00905 6.36419 3.16934 6.43533 3.32321 6.50362C3.46952 6.56855 3.61002 6.63091 3.81859 6.62708C4.26181 6.61923 4.54073 6.21901 4.81201 5.81095C5.10476 5.37298 5.23341 4.94555 5.25293 4.88068L5.25522 4.87317C5.25476 4.87269 5.25114 4.87099 5.24476 4.86799C5.14689 4.82198 4.39889 4.47032 4.39172 3.52733C4.38451 2.73583 4.98501 2.3348 5.07954 2.27167C5.08529 2.26783 5.08917 2.26524 5.09093 2.26389C4.70884 1.68318 4.11279 1.6204 3.90647 1.6047ZM12.8588 6.63109C13.4396 6.63109 13.9783 6.32896 14.2228 5.85027H14.2419V6.584H15.0978V3.53918C15.0978 2.65634 14.4101 2.0874 13.3517 2.0874C12.3697 2.0874 11.6438 2.66419 11.617 3.45679H12.45C12.5188 3.08011 12.8588 2.83291 13.3249 2.83291C13.8904 2.83291 14.2076 3.10365 14.2076 3.60196V3.93941L13.0537 4.01003C11.98 4.07674 11.3992 4.52797 11.3992 5.31271C11.3992 6.10531 11.9991 6.63109 12.8588 6.63109ZM13.1071 5.90517C12.6142 5.90517 12.3009 5.6619 12.3009 5.28914C12.3009 4.90462 12.6027 4.68097 13.1797 4.64565L14.2075 4.57895V4.92424C14.2075 5.4971 13.7337 5.90517 13.1071 5.90517ZM17.9366 6.82335C17.566 7.89453 17.1419 8.24766 16.2402 8.24766C16.1714 8.24766 15.9422 8.23982 15.8887 8.22412V7.49038C15.946 7.49823 16.0874 7.50608 16.16 7.50608C16.5688 7.50608 16.798 7.32951 16.9394 6.87043L17.0235 6.5997L15.4569 2.14626H16.4236L17.5125 5.76002H17.5316L18.6206 2.14626H19.5605L17.9366 6.82335ZM7.89922 1.26752H8.96524C9.76761 1.26752 10.2261 1.70698 10.2261 2.47995C10.2261 3.25293 9.76761 3.69631 8.96142 3.69631H7.89922V1.26752Z" fill="var(--fill-0, black)"/>
</svg>
