<svg preserveAspectRatio="none" width="100%" height="100%" overflow="visible" style="display: block;" viewBox="0 0 7 7" fill="none" xmlns="http://www.w3.org/2000/svg">
<g id="G">
<path id="Blue" d="M6.45517 3.46542C6.45517 3.23474 6.43688 3.00405 6.40028 2.77808H3.29446V4.08215H5.07379C5.00061 4.50115 4.76275 4.87778 4.41512 5.11317V5.96058H5.47631C6.09839 5.3721 6.45517 4.50115 6.45517 3.46542Z" fill="var(--fill-0, #4285F4)"/>
<path id="Green" d="M3.29455 6.77948C4.18193 6.77948 4.93208 6.47817 5.4764 5.96031L4.41521 5.1129C4.11789 5.32004 3.73824 5.43774 3.29455 5.43774C2.43462 5.43774 1.70734 4.83984 1.44661 4.03951H0.353401V4.91517C0.911442 6.05917 2.0504 6.77948 3.29455 6.77948Z" fill="var(--fill-0, #34A853)"/>
<path id="Yellow" d="M1.44678 4.03951C1.30954 3.62051 1.30954 3.16385 1.44678 2.74014V1.86919H0.353399C-0.11781 2.82488 -0.11781 3.95477 0.353399 4.91046L1.44678 4.03951Z" fill="var(--fill-0, #FBBC04)"/>
<path id="Red" d="M3.29455 1.34203C3.76569 1.33262 4.21852 1.51623 4.55701 1.85048L5.49927 0.880665C4.90007 0.306307 4.11332 -0.00911926 3.29455 0.000296443C2.0504 0.000296443 0.911443 0.725306 0.353401 1.86931L1.44661 2.74497C1.70734 1.93993 2.43462 1.34203 3.29455 1.34203Z" fill="var(--fill-0, #EA4335)"/>
</g>
</svg>
