<svg preserveAspectRatio="none" width="100%" height="100%" overflow="visible" style="display: block;" viewBox="0 0 20 12" fill="none" xmlns="http://www.w3.org/2000/svg">
<g id="Mastercard">
<path id="Left" d="M13.7109 0C17.0068 0.000237723 19.6787 2.62855 19.6787 5.87012C19.6785 9.1115 17.0067 11.739 13.7109 11.7393C12.2331 11.7393 10.8812 11.21 9.83887 10.335C8.7966 11.2097 7.44536 11.7393 5.96777 11.7393C2.67199 11.7391 0.000256238 9.11152 0 5.87012C0 2.6285 2.67184 0.000159418 5.96777 0C7.44512 0 8.79667 0.528801 9.83887 1.40332C10.8811 0.528568 12.2334 0 13.7109 0Z" fill="var(--fill-0, #ED0006)"/>
<path id="Right" d="M13.7103 4.57764e-05C17.0064 4.57764e-05 19.6781 2.62844 19.6781 5.87016C19.6779 9.11169 17.0063 11.7393 13.7103 11.7393C12.2327 11.7393 10.8815 11.2099 9.83924 10.335C11.1217 9.2585 11.9358 7.65839 11.9359 5.87016C11.9359 4.08173 11.1219 2.48094 9.83924 1.40434C10.8815 0.52949 12.2327 8.4636e-05 13.7103 4.57764e-05Z" fill="var(--fill-0, #F9A000)"/>
<path id="Middle" d="M9.8391 1.40451C11.1218 2.48111 11.9358 4.08186 11.9358 5.87033C11.9357 7.6586 11.1216 9.25865 9.8391 10.3352C8.55668 9.25866 7.74253 7.6585 7.74242 5.87033C7.74242 4.08196 8.55652 2.4811 9.8391 1.40451Z" fill="var(--fill-0, #FF5E00)"/>
</g>
</svg>
