<svg preserveAspectRatio="none" width="100%" height="100%" overflow="visible" style="display: block;" viewBox="0 0 28 19" fill="none" xmlns="http://www.w3.org/2000/svg">
<g id="Payment Method/Visa">
<rect id="BASE" x="0.59375" y="0.59375" width="26.125" height="17.8125" rx="2.375" fill="var(--fill-0, white)" stroke="var(--stroke-0, white)" stroke-width="1.1875"/>
<path id="visa-logo" fill-rule="evenodd" clip-rule="evenodd" d="M8.34239 12.8736H6.68778L5.44703 8.07146C5.38814 7.85056 5.26309 7.65527 5.07916 7.56323C4.62013 7.33192 4.1143 7.14784 3.5625 7.055V6.87012H6.22794C6.59581 6.87012 6.87172 7.14784 6.9177 7.47039L7.56147 10.9343L9.21527 6.87012H10.8239L8.34239 12.8736ZM11.7445 12.8736H10.1819L11.4686 6.87012H13.0313L11.7445 12.8736ZM15.0516 8.53256C15.0976 8.20922 15.3735 8.02434 15.6954 8.02434C16.2012 7.97792 16.7522 8.07076 17.212 8.30126L17.4879 7.00868C17.0281 6.8238 16.5223 6.73096 16.0632 6.73096C14.5466 6.73096 13.443 7.56253 13.443 8.71665C13.443 9.59464 14.2247 10.0556 14.7765 10.3334C15.3735 10.6103 15.6034 10.7952 15.5574 11.0721C15.5574 11.4875 15.0976 11.6724 14.6386 11.6724C14.0867 11.6724 13.5349 11.5339 13.0299 11.3026L12.754 12.596C13.3058 12.8265 13.9028 12.9193 14.4546 12.9193C16.1552 12.9649 17.212 12.1342 17.212 10.8872C17.212 9.31691 15.0516 9.22487 15.0516 8.53256V8.53256ZM22.6802 12.8736L21.4395 6.87012H20.1068C19.8309 6.87012 19.5549 7.055 19.463 7.33192L17.1654 12.8736H18.774L19.0951 11.9964H21.0716L21.2555 12.8736H22.6802ZM20.338 8.48438L20.797 10.747H19.5103L20.338 8.48438Z" fill="var(--fill-0, #172B85)"/>
</g>
</svg>
