<svg preserveAspectRatio="none" width="100%" height="100%" overflow="visible" style="display: block;" viewBox="0 0 30 30" fill="none" xmlns="http://www.w3.org/2000/svg">
<g id="Frame">
<path id="Vector" d="M7.5 26.25H11.25M18.75 26.25H22.5M21.875 8.125V18.125M3.75 7.75V18.5C3.75 19.9001 3.75 20.6003 4.02249 21.135C4.26216 21.6054 4.64461 21.9879 5.11503 22.2275C5.6498 22.5 6.34986 22.5 7.75 22.5H22.25C23.6501 22.5 24.3503 22.5 24.885 22.2275C25.3554 21.9879 25.7379 21.6054 25.9775 21.135C26.25 20.6003 26.25 19.9001 26.25 18.5V7.75C26.25 6.34987 26.25 5.6498 25.9775 5.11503C25.7379 4.64463 25.3554 4.26217 24.885 4.02249C24.3503 3.75 23.6501 3.75 22.25 3.75H7.75C6.34987 3.75 5.6498 3.75 5.11503 4.02249C4.64463 4.26216 4.26216 4.64461 4.02249 5.11503C3.75 5.6498 3.75 6.34986 3.75 7.75ZM14.375 13.125C14.375 14.8509 12.9759 16.25 11.25 16.25C9.52411 16.25 8.125 14.8509 8.125 13.125C8.125 11.3991 9.52411 10 11.25 10C12.9759 10 14.375 11.3991 14.375 13.125Z" stroke="var(--stroke-0, #B4B4B4)" stroke-width="1.96875" stroke-linecap="round" stroke-linejoin="round"/>
</g>
</svg>
