<svg preserveAspectRatio="none" width="100%" height="100%" overflow="visible" style="display: block;" viewBox="0 0 30 30" fill="none" xmlns="http://www.w3.org/2000/svg">
<g id="Frame">
<path id="Vector" d="M25 15.6255V8.50049C25 6.40029 25 5.35019 24.5912 4.54803C24.2317 3.84241 23.6581 3.26874 22.9525 2.90921C22.1502 2.50049 21.1002 2.50049 19 2.50049H11C8.89977 2.50049 7.84967 2.50049 7.04751 2.90921C6.34189 3.26874 5.76822 3.84241 5.40869 4.54803C4.99997 5.35019 4.99997 6.40029 4.99997 8.50049V21.5005C4.99997 23.6007 4.99997 24.6507 5.40869 25.453C5.76822 26.1586 6.34189 26.7322 7.04751 27.0917C7.84967 27.5005 8.89972 27.5005 10.9998 27.5005H15.625M18.75 23.7505L22.5 27.5005M22.5 27.5005L26.25 23.7505M22.5 27.5005V20.0005" stroke="var(--stroke-0, #B4B4B4)" stroke-width="2.25" stroke-linecap="round" stroke-linejoin="round"/>
</g>
</svg>
