<svg preserveAspectRatio="none" width="100%" height="100%" overflow="visible" style="display: block;" viewBox="0 0 94 40" fill="none" xmlns="http://www.w3.org/2000/svg">
<g id="Group">
<path id="Vector" d="M8.87658 37.2042C7.3806 37.2042 6.23223 36.9373 5.43768 36.3972C4.63693 35.8572 4.04102 35.2551 3.64374 34.5909H3.14715V36.7697H0V14.9631H3.20923V23.4983H3.70582C3.95411 23.0824 4.28931 22.6851 4.70521 22.3002C5.12111 21.9154 5.67356 21.5988 6.35638 21.3505C7.03919 21.1022 7.8834 20.9781 8.87658 20.9781C10.1615 20.9781 11.3471 21.2884 12.4272 21.9154C13.5073 22.5361 14.3701 23.4424 15.0095 24.628C15.6551 25.8136 15.9778 27.2227 15.9778 28.8615V29.327C15.9778 30.9906 15.6489 32.4059 14.9971 33.5791C14.3453 34.7523 13.4825 35.6523 12.4148 36.2731C11.3409 36.8876 10.1615 37.2042 8.87658 37.2042ZM7.94547 34.3985C9.33593 34.3985 10.4843 33.9515 11.3844 33.0577C12.2906 32.1638 12.7376 30.8851 12.7376 29.2277V28.9484C12.7376 27.3096 12.2907 26.0433 11.3968 25.1494C10.5029 24.2556 9.34834 23.8086 7.93926 23.8086C6.56743 23.8086 5.43147 24.2556 4.5314 25.1494C3.62512 26.0433 3.17819 27.3096 3.17819 28.9484V29.2277C3.17819 30.8913 3.63133 32.1638 4.5314 33.0577C5.43768 33.9515 6.57364 34.3985 7.94547 34.3985Z" fill="var(--fill-0, #FFB000)"/>
<path id="Vector_2" d="M69.2821 25.3683V21.4142H57.0411V24.1268H65.7935V24.5614L56.7307 32.8482V36.7713H69.2821V34.0649H60.1883V33.6614L69.2821 25.3683Z" fill="var(--fill-0, #FFB000)"/>
<path id="Vector_3" d="M74.3763 19.3207C73.7555 19.3207 73.2279 19.1158 72.8058 18.7124C72.3775 18.3089 72.1664 17.7812 72.1664 17.1419C72.1664 16.4963 72.3775 15.9749 72.8058 15.5714C73.2341 15.1679 73.7555 14.9631 74.3763 14.9631C75.0218 14.9631 75.5494 15.1679 75.9653 15.5714C76.3812 15.9749 76.5861 16.5025 76.5861 17.1419C76.5861 17.7875 76.3812 18.3089 75.9653 18.7124C75.5494 19.122 75.0218 19.3207 74.3763 19.3207ZM72.7561 36.7635V21.4064H75.9653V36.7635H72.7561Z" fill="var(--fill-0, #FFB000)"/>
<path id="Vector_4" d="M86.5805 37.2127C85.0224 37.2127 83.663 36.8837 82.5022 36.2319C81.3414 35.5801 80.4289 34.6552 79.7772 33.4572C79.1254 32.2654 78.7964 30.8749 78.7964 29.2983V28.9258C78.7964 27.3243 79.1192 25.9338 79.7647 24.7358C80.4103 23.544 81.3042 22.6191 82.4588 21.9611C83.6133 21.3093 84.9479 20.9803 86.4625 20.9803C87.9337 20.9803 89.231 21.3093 90.3422 21.9611C91.4533 22.6129 92.3223 23.5254 92.943 24.6862C93.5638 25.8469 93.8804 27.2064 93.8804 28.7644V29.9811H82.0739C82.1173 31.3281 82.5643 32.4082 83.4271 33.2027C84.2899 34.0035 85.3638 34.4007 86.6487 34.4007C87.853 34.4007 88.7593 34.1338 89.3738 33.5938C89.9883 33.0537 90.4601 32.433 90.7891 31.7254L93.4334 33.0972C93.1417 33.6807 92.7196 34.289 92.1733 34.9346C91.6209 35.5801 90.9008 36.1202 90.0069 36.5547C89.1131 36.9892 87.9709 37.2127 86.5805 37.2127ZM82.0925 27.5229H90.5967C90.516 26.3622 90.1001 25.4497 89.349 24.7979C88.6041 24.1461 87.6233 23.8171 86.4191 23.8171C85.2148 23.8171 84.2341 24.1461 83.4768 24.7979C82.7195 25.4497 82.2601 26.3622 82.0925 27.5229Z" fill="var(--fill-0, #FFB000)"/>
<path id="Vector_5" d="M47.7478 16.4V5.46872L38.2753 0L28.8028 5.46872V16.4L38.2753 21.8687L47.7478 16.4Z" fill="var(--fill-0, #FFB000)"/>
<path id="Vector_6" d="M30.7507 24.7709C30.0058 24.1191 29.0313 23.7901 27.827 23.7901C26.6228 23.7901 25.6482 24.1191 24.8909 24.7709C24.1336 25.4227 23.6743 26.3289 23.5067 27.4897H31.9922C31.9115 26.3289 31.5018 25.4227 30.7507 24.7709Z" fill="var(--fill-0, #FFB000)"/>
<path id="Vector_7" d="M47.2693 37.16C45.7174 37.16 44.358 36.831 43.1972 36.1792C42.0364 35.5274 41.1302 34.6025 40.4784 33.4107C39.8266 32.2189 39.4976 30.8346 39.4976 29.2641V28.8917C39.4976 27.2964 39.8204 25.9059 40.4598 24.7141C41.0991 23.5223 41.9992 22.6036 43.1476 21.9456C44.2959 21.2938 45.6305 20.9648 47.1389 20.9648C48.6101 20.9648 49.9012 21.2938 51.0061 21.9456C52.1173 22.5974 52.9801 23.5037 53.6008 24.6645C54.2216 25.8252 54.5319 27.1847 54.5319 28.7365V29.947H42.7627C42.8062 31.294 43.2531 32.3678 44.1159 33.1624C44.9725 33.9631 46.0464 34.3604 47.3314 34.3604C48.5356 34.3604 49.4419 34.0935 50.0502 33.5535C50.6585 33.0134 51.1303 32.3927 51.4655 31.6912L54.1098 33.0569C53.8181 33.6342 53.4022 34.2487 52.8497 34.888C52.3035 35.5274 51.5772 36.0675 50.6896 36.502C49.7957 36.9427 48.6597 37.16 47.2693 37.16ZM42.7937 27.495H51.2793C51.1986 26.3342 50.7827 25.428 50.0378 24.7762C49.2929 24.1244 48.3183 23.7954 47.1141 23.7954C45.9099 23.7954 44.9353 24.1244 44.178 24.7762C43.4207 25.428 42.9613 26.3342 42.7937 27.495Z" fill="var(--fill-0, #FFB000)"/>
<path id="Vector_8" d="M27.7425 18.1189L18.27 23.5876V34.5251L24.3657 38.0447L26.7245 39.4103L27.7425 40L28.7543 39.4165L31.4545 37.846L37.2026 34.5251V23.5876L27.7425 18.1189ZM35.2659 29.944H23.4842C23.5277 31.291 23.9746 32.3649 24.8374 33.1594C25.694 33.9602 26.7679 34.3575 28.0529 34.3575C29.2571 34.3575 30.1634 34.0844 30.7717 33.5505C31.3862 33.0105 31.8518 32.3897 32.187 31.6883L34.8251 33.0539C34.5334 33.6374 34.1175 34.2457 33.565 34.8913C33.0126 35.5307 32.2925 36.0707 31.4049 36.5052C30.511 36.9398 29.375 37.157 27.9846 37.157C26.4327 37.157 25.0733 36.8342 23.9125 36.1762C22.7517 35.5245 21.8455 34.5996 21.1937 33.4077C20.5419 32.2159 20.2129 30.8317 20.2129 29.2612V28.8888C20.2129 27.2935 20.5357 25.903 21.1751 24.705C21.8144 23.5132 22.7145 22.5945 23.8629 21.9365C25.0174 21.2847 26.3458 20.9557 27.8604 20.9557C29.3316 20.9557 30.6165 21.2785 31.7276 21.9365C32.8388 22.5882 33.7016 23.4945 34.3223 24.6553C34.9431 25.8161 35.2534 27.1755 35.2534 28.7274V29.944H35.2659Z" fill="var(--fill-0, #FFB000)"/>
</g>
</svg>
