<svg preserveAspectRatio="none" width="100%" height="100%" overflow="visible" style="display: block;" viewBox="0 0 16 16" fill="none" xmlns="http://www.w3.org/2000/svg">
<g id="Frame" clip-path="url(#clip0_0_6)">
<path id="Vector" d="M3 14.6667V11.3333M3 4.66667V1.33333M1.33333 3H4.66667M1.33333 13H4.66667M8.66667 2L7.51053 5.00591C7.32253 5.49473 7.22853 5.73914 7.08233 5.94473C6.9528 6.12693 6.7936 6.28613 6.61139 6.41569C6.40581 6.56187 6.16139 6.65587 5.67257 6.84387L2.66667 8L5.67257 9.15613C6.16139 9.34413 6.40581 9.43813 6.61139 9.58433C6.7936 9.71387 6.9528 9.87307 7.08233 10.0553C7.22853 10.2609 7.32253 10.5053 7.51053 10.9941L8.66667 14L9.8228 10.9941C10.0108 10.5053 10.1048 10.2609 10.251 10.0553C10.3805 9.87307 10.5397 9.71387 10.7219 9.58433C10.9275 9.43813 11.1719 9.34413 11.6607 9.15613L14.6667 8L11.6607 6.84387C11.1719 6.65587 10.9275 6.56187 10.7219 6.41569C10.5397 6.28613 10.3805 6.12693 10.251 5.94473C10.1048 5.73914 10.0108 5.49473 9.8228 5.00591L8.66667 2Z" stroke="url(#paint0_linear_0_6)" stroke-linecap="round" stroke-linejoin="round"/>
</g>
<defs>
<linearGradient id="paint0_linear_0_6" x1="8" y1="1.33333" x2="8" y2="14.6667" gradientUnits="userSpaceOnUse">
<stop stop-color="#FFB000"/>
<stop offset="0.5" stop-color="#FFCA28"/>
<stop offset="1" stop-color="#FFE082"/>
</linearGradient>
<clipPath id="clip0_0_6">
<rect width="16" height="16" fill="white"/>
</clipPath>
</defs>
</svg>
