<svg preserveAspectRatio="none" width="100%" height="100%" overflow="visible" style="display: block;" viewBox="0 0 16 16" fill="none" xmlns="http://www.w3.org/2000/svg">
<g id="Frame" clip-path="url(#clip0_0_4)">
<path id="Vector" d="M6 6H6.00667M10 10H10.0067M10.6667 5.33333L5.33333 10.6667M4.88918 2.5458C5.42507 2.50303 5.93381 2.29231 6.34298 1.94361C7.2978 1.12991 8.7022 1.12991 9.657 1.94361C10.0662 2.29231 10.5749 2.50303 11.1108 2.5458C12.3614 2.64559 13.3544 3.63863 13.4542 4.88918C13.497 5.42507 13.7077 5.93381 14.0564 6.34298C14.8701 7.2978 14.8701 8.7022 14.0564 9.657C13.7077 10.0662 13.497 10.5749 13.4542 11.1108C13.3544 12.3614 12.3614 13.3544 11.1108 13.4542C10.5749 13.497 10.0662 13.7077 9.657 14.0564C8.7022 14.8701 7.2978 14.8701 6.34298 14.0564C5.93381 13.7077 5.42507 13.497 4.88918 13.4542C3.63863 13.3544 2.64559 12.3614 2.5458 11.1108C2.50303 10.5749 2.29231 10.0662 1.94361 9.657C1.12991 8.7022 1.12991 7.2978 1.94361 6.34298C2.29231 5.93381 2.50303 5.42507 2.5458 4.88918C2.64559 3.63863 3.63863 2.64559 4.88918 2.5458ZM6.33333 6C6.33333 6.18409 6.18409 6.33333 6 6.33333C5.81591 6.33333 5.66667 6.18409 5.66667 6C5.66667 5.81591 5.81591 5.66667 6 5.66667C6.18409 5.66667 6.33333 5.81591 6.33333 6ZM10.3333 10C10.3333 10.1841 10.1841 10.3333 10 10.3333C9.81593 10.3333 9.66667 10.1841 9.66667 10C9.66667 9.81593 9.81593 9.66667 10 9.66667C10.1841 9.66667 10.3333 9.81593 10.3333 10Z" stroke="var(--stroke-0, white)" stroke-linecap="round" stroke-linejoin="round"/>
</g>
<defs>
<clipPath id="clip0_0_4">
<rect width="16" height="16" fill="white"/>
</clipPath>
</defs>
</svg>
