<svg preserveAspectRatio="none" width="100%" height="100%" overflow="visible" style="display: block;" viewBox="0 0 3 3" fill="none" xmlns="http://www.w3.org/2000/svg">
<path id="Vector" d="M1.5 0L1.30477 0.780899C1.26667 0.933278 1.24764 1.00947 1.20796 1.07146C1.17287 1.1263 1.1263 1.17287 1.07146 1.20796C1.00947 1.24764 0.933278 1.26667 0.780899 1.30477L0 1.5L0.780899 1.69523C0.933278 1.73333 1.00947 1.75236 1.07146 1.79204C1.1263 1.82712 1.17287 1.8737 1.20796 1.92854C1.24764 1.99053 1.26667 2.06673 1.30477 2.2191L1.5 3L1.69523 2.2191C1.73333 2.06673 1.75236 1.99053 1.79204 1.92854C1.82712 1.8737 1.8737 1.82712 1.92854 1.79204C1.99053 1.75236 2.06673 1.73333 2.2191 1.69523L3 1.5L2.2191 1.30477C2.06673 1.26667 1.99053 1.24764 1.92854 1.20796C1.8737 1.17287 1.82712 1.1263 1.79204 1.07146C1.75236 1.00947 1.73333 0.933278 1.69523 0.780899L1.5 0Z" fill="var(--fill-0, #ACACAC)" fill-opacity="0.62"/>
</svg>
