<svg preserveAspectRatio="none" width="100%" height="100%" overflow="visible" style="display: block;" viewBox="0 0 4 4" fill="none" xmlns="http://www.w3.org/2000/svg">
<path id="Vector" d="M2 0L1.7397 1.0412C1.6889 1.24437 1.66352 1.34596 1.61062 1.42862C1.56383 1.50174 1.50174 1.56383 1.42862 1.61062C1.34596 1.66352 1.24437 1.6889 1.0412 1.7397L0 2L1.0412 2.2603C1.24437 2.3111 1.34596 2.33648 1.42862 2.38938C1.50174 2.43616 1.56383 2.49826 1.61062 2.57138C1.66352 2.65404 1.6889 2.75564 1.7397 2.9588L2 4L2.2603 2.9588C2.3111 2.75564 2.33648 2.65404 2.38938 2.57138C2.43616 2.49826 2.49826 2.43616 2.57138 2.38938C2.65404 2.33648 2.75564 2.3111 2.9588 2.2603L4 2L2.9588 1.7397C2.75564 1.6889 2.65404 1.66352 2.57138 1.61062C2.49826 1.56383 2.43616 1.50174 2.38938 1.42862C2.33648 1.34596 2.3111 1.24437 2.2603 1.0412L2 0Z" fill="var(--fill-0, #ACACAC)" fill-opacity="0.62"/>
</svg>
