<svg preserveAspectRatio="none" width="100%" height="100%" overflow="visible" style="display: block;" viewBox="0 0 2 2" fill="none" xmlns="http://www.w3.org/2000/svg">
<path id="Vector" d="M1 0L0.86985 0.520599C0.84445 0.622185 0.83176 0.672978 0.80531 0.714309C0.781915 0.750868 0.750868 0.781915 0.714309 0.80531C0.672978 0.83176 0.622185 0.84445 0.520599 0.86985L0 1L0.520599 1.13015C0.622185 1.15555 0.672978 1.16824 0.714309 1.19469C0.750868 1.21808 0.781915 1.24913 0.80531 1.28569C0.83176 1.32702 0.84445 1.37782 0.86985 1.4794L1 2L1.13015 1.4794C1.15555 1.37782 1.16824 1.32702 1.19469 1.28569C1.21808 1.24913 1.24913 1.21808 1.28569 1.19469C1.32702 1.16824 1.37782 1.15555 1.4794 1.13015L2 1L1.4794 0.86985C1.37782 0.84445 1.32702 0.83176 1.28569 0.80531C1.24913 0.781915 1.21808 0.750868 1.19469 0.714309C1.16824 0.672978 1.15555 0.622185 1.13015 0.520599L1 0Z" fill="var(--fill-0, #ACACAC)" fill-opacity="0.75"/>
</svg>
